<svg class="img-fluid" id="outputsvg" xmlns="http://www.w3.org/2000/svg"
    style="transform: none; transform-origin: 50% 50% 0px; cursor: move; transition: none 0s ease 0s;"
    width="120" height="120" viewBox="0 0 1200 1200">
    <g id="l17zaBOJpsOxfMZqizMdLW6" fill="rgb(163,173,183)" style="transform: none;">
        <g>
            <path id="p4Kb3gM6x"
                d="M502 1107 c-6 -7 -22 -42 -34 -77 -31 -86 -70 -115 -143 -105 -27 4 -68 8 -90 9 -38 1 -40 -1 -82 -69 -24 -38 -43 -78 -43 -89 0 -10 20 -40 44 -66 74 -79 74 -138 1 -220 -25 -28 -45 -58 -45 -67 0 -20 64 -136 85 -153 13 -11 29 -11 85 -1 113 20 159 -5 190 -107 11 -36 26 -70 33 -74 21 -14 183 -9 195 5 6 7 22 42 34 77 30 82 60 106 131 102 156 -8 136 -15 184 63 24 38 43 77 43 87 0 10 -17 37 -39 61 -48 53 -61 78 -61 117 0 39 13 64 61 117 22 24 39 50 39 59 0 21 -80 155 -97 161 -7 3 -42 -1 -76 -7 -35 -7 -76 -10 -92 -6 -40 10 -82 57 -95 107 -22 85 -29 89 -129 89 -61 0 -92 -4 -99 -13z m153 -298 c149 -41 210 -225 114 -342 -83 -101 -216 -111 -313 -26 -69 61 -91 144 -61 230 39 110 149 168 260 138z">
            </path>
            <path id="pNXI89EI9"
                d="M541 712 c-38 -21 -71 -73 -71 -112 0 -62 68 -130 130 -130 40 0 92 34 113 74 55 105 -68 226 -172 168z">
            </path>
        </g>
    </g>
</svg>